<svg width="434" height="181" viewBox="0 0 434 181" fill="none" xmlns="http://www.w3.org/2000/svg">
<rect width="434" height="181" fill="#2BADC6"/>
<path d="M252.625 106C253.562 106 254.5 106.938 254.5 107.875V109.75C254.5 113.852 251.102 117.25 247 117.25H187C182.781 117.25 179.5 113.852 179.5 109.75V107.875C179.5 106.82 180.32 106 181.375 106H252.625ZM247 113.5C248.992 113.5 250.75 111.859 250.75 109.75H183.25C183.25 111.859 184.891 113.5 187 113.5H247ZM188.875 102.25C187.82 102.25 187 101.43 187 100.375V72.25C187 68.1484 190.281 64.75 194.5 64.75H239.5C243.602 64.75 247 68.1484 247 72.25V100.375C247 101.43 246.062 102.25 245.125 102.25C244.07 102.25 243.25 101.43 243.25 100.375V72.25C243.25 70.2578 241.492 68.5 239.5 68.5H194.5C192.391 68.5 190.75 70.2578 190.75 72.25V100.375C190.75 101.43 189.812 102.25 188.875 102.25Z" fill="white"/>
</svg>
