<svg width="434" height="181" viewBox="0 0 434 181" fill="none" xmlns="http://www.w3.org/2000/svg">
<rect width="434" height="181" fill="#E8A352"/>
<path d="M201.125 106C202.062 106 203 106.938 203 107.875V109.75C203 113.852 199.602 117.25 195.5 117.25H135.5C131.281 117.25 128 113.852 128 109.75V107.875C128 106.82 128.82 106 129.875 106H201.125ZM195.5 113.5C197.492 113.5 199.25 111.859 199.25 109.75H131.75C131.75 111.859 133.391 113.5 135.5 113.5H195.5ZM137.375 102.25C136.32 102.25 135.5 101.43 135.5 100.375V72.25C135.5 68.1484 138.781 64.75 143 64.75H188C192.102 64.75 195.5 68.1484 195.5 72.25V100.375C195.5 101.43 194.562 102.25 193.625 102.25C192.57 102.25 191.75 101.43 191.75 100.375V72.25C191.75 70.2578 189.992 68.5 188 68.5H143C140.891 68.5 139.25 70.2578 139.25 72.25V100.375C139.25 101.43 138.312 102.25 137.375 102.25Z" fill="white"/>
<path d="M276 89.125C281.156 89.125 285.375 93.3438 285.375 98.5C285.375 103.773 281.156 107.875 276 107.875C270.727 107.875 266.625 103.773 266.625 98.5C266.625 93.3438 270.727 89.125 276 89.125ZM276 104.125C279.047 104.125 281.625 101.664 281.625 98.5C281.625 95.4531 279.047 92.875 276 92.875C272.836 92.875 270.375 95.4531 270.375 98.5C270.375 101.664 272.836 104.125 276 104.125ZM304.594 74.9453C305.414 75.6484 306 76.7031 305.883 77.875V85.375C305.883 86.4297 304.945 87.25 304.008 87.25H296.625C295.57 87.25 294.75 86.4297 294.75 85.375C294.75 84.4375 295.57 83.5 296.625 83.5H302.133V77.875C294.75 71.8984 285.492 68.6172 276 68.5C266.391 68.6172 257.133 71.8984 249.633 77.875L249.75 83.5H255.375C256.312 83.5 257.25 84.4375 257.25 85.375C257.25 86.4297 256.312 87.25 255.375 87.25H247.875C246.82 87.25 246 86.4297 246 85.375V77.875C245.883 76.7031 246.469 75.6484 247.289 74.9453C255.375 68.5 265.57 64.75 276 64.75C286.312 64.75 296.508 68.5 304.594 74.9453ZM289.359 83.6172L301.078 104.359C301.781 105.414 302.133 106.703 302.133 108.109V109.75C302.133 113.969 298.734 117.25 294.633 117.25H257.133C253.031 117.25 249.633 113.969 249.633 109.75V108.109C249.633 106.703 249.984 105.531 250.688 104.359L262.523 83.6172C263.812 81.3906 266.039 80.1016 268.5 79.8672C268.5 79.8672 268.5 79.8672 268.5 79.75V76C268.5 75.0625 269.32 74.125 270.375 74.125C271.312 74.125 272.25 75.0625 272.25 76V79.75H279.75V76C279.75 75.0625 280.57 74.125 281.625 74.125C282.562 74.125 283.5 75.0625 283.5 76V79.75C283.5 79.8672 283.383 79.8672 283.383 79.8672C285.844 80.1016 288.07 81.3906 289.359 83.6172ZM298.383 109.75H298.5V107.992C298.5 107.406 298.266 106.703 297.914 106.234L286.078 85.4922C285.375 84.3203 284.203 83.5 282.797 83.5H269.086C267.68 83.5 266.508 84.3203 265.805 85.6094L253.969 106.234C253.617 106.703 253.5 107.406 253.5 107.992V109.75C253.5 111.859 255.141 113.5 257.25 113.5H294.633C296.625 113.5 298.383 111.859 298.383 109.75Z" fill="white"/>
</svg>
