<svg width="434" height="181" viewBox="0 0 434 181" fill="none" xmlns="http://www.w3.org/2000/svg">
<rect width="434" height="181" fill="#0D7FEE"/>
<path d="M130.5 70.5C134.875 70.5 138.5 74.125 138.5 78.5V114.625C138.5 119 134.875 122.5 130.5 122.5H82.5C78 122.5 74.5 119 74.5 114.375V78.5C74.5 74.125 78 70.5 82.5 70.5H101L91.125 62.125C90.25 61.375 90.25 60.125 90.875 59.25C91.625 58.375 92.875 58.375 93.75 59L106.5 69.875L119.125 59C120 58.375 121.25 58.375 122 59.25C122.625 60.125 122.625 61.375 121.75 62.125L111.875 70.5H130.5ZM134.5 114.5V78.5C134.5 76.375 132.625 74.5 130.5 74.5H82.5C80.25 74.5 78.5 76.375 78.5 78.5V114.5C78.5 116.75 80.25 118.5 82.5 118.5H130.5C132.625 118.5 134.5 116.75 134.5 114.5ZM114.5 78.5C118.875 78.5 122.5 82.125 122.375 86.5V106.5C122.375 111 118.75 114.5 114.375 114.5H90.5C86 114.5 82.5 111 82.5 106.5V86.5C82.5 82.125 86 78.5 90.5 78.5H114.5ZM118.5 106.5V86.5C118.5 84.375 116.625 82.5 114.5 82.5H90.5C88.25 82.5 86.5 84.375 86.5 86.5V106.5C86.5 108.75 88.25 110.5 90.5 110.5H114.5C116.625 110.5 118.5 108.75 118.5 106.5ZM128.5 81.5C130.125 81.5 131.5 82.875 131.5 84.5C131.5 86.25 130.125 87.5 128.5 87.5C126.75 87.5 125.5 86.25 125.5 84.5C125.5 82.875 126.75 81.5 128.5 81.5ZM128.5 89.5C130.125 89.5 131.5 90.875 131.5 92.5C131.5 94.25 130.125 95.5 128.5 95.5C126.75 95.5 125.5 94.25 125.5 92.5C125.5 90.875 126.75 89.5 128.5 89.5Z" fill="white"/>
<path d="M254.625 108C255.562 108 256.5 108.938 256.5 109.875V111.75C256.5 115.852 253.102 119.25 249 119.25H189C184.781 119.25 181.5 115.852 181.5 111.75V109.875C181.5 108.82 182.32 108 183.375 108H254.625ZM249 115.5C250.992 115.5 252.75 113.859 252.75 111.75H185.25C185.25 113.859 186.891 115.5 189 115.5H249ZM190.875 104.25C189.82 104.25 189 103.43 189 102.375V74.25C189 70.1484 192.281 66.75 196.5 66.75H241.5C245.602 66.75 249 70.1484 249 74.25V102.375C249 103.43 248.062 104.25 247.125 104.25C246.07 104.25 245.25 103.43 245.25 102.375V74.25C245.25 72.2578 243.492 70.5 241.5 70.5H196.5C194.391 70.5 192.75 72.2578 192.75 74.25V102.375C192.75 103.43 191.812 104.25 190.875 104.25Z" fill="white"/>
<path d="M329.5 91.125C334.656 91.125 338.875 95.3438 338.875 100.5C338.875 105.773 334.656 109.875 329.5 109.875C324.227 109.875 320.125 105.773 320.125 100.5C320.125 95.3438 324.227 91.125 329.5 91.125ZM329.5 106.125C332.547 106.125 335.125 103.664 335.125 100.5C335.125 97.4531 332.547 94.875 329.5 94.875C326.336 94.875 323.875 97.4531 323.875 100.5C323.875 103.664 326.336 106.125 329.5 106.125ZM358.094 76.9453C358.914 77.6484 359.5 78.7031 359.383 79.875V87.375C359.383 88.4297 358.445 89.25 357.508 89.25H350.125C349.07 89.25 348.25 88.4297 348.25 87.375C348.25 86.4375 349.07 85.5 350.125 85.5H355.633V79.875C348.25 73.8984 338.992 70.6172 329.5 70.5C319.891 70.6172 310.633 73.8984 303.133 79.875L303.25 85.5H308.875C309.812 85.5 310.75 86.4375 310.75 87.375C310.75 88.4297 309.812 89.25 308.875 89.25H301.375C300.32 89.25 299.5 88.4297 299.5 87.375V79.875C299.383 78.7031 299.969 77.6484 300.789 76.9453C308.875 70.5 319.07 66.75 329.5 66.75C339.812 66.75 350.008 70.5 358.094 76.9453ZM342.859 85.6172L354.578 106.359C355.281 107.414 355.633 108.703 355.633 110.109V111.75C355.633 115.969 352.234 119.25 348.133 119.25H310.633C306.531 119.25 303.133 115.969 303.133 111.75V110.109C303.133 108.703 303.484 107.531 304.188 106.359L316.023 85.6172C317.312 83.3906 319.539 82.1016 322 81.8672C322 81.8672 322 81.8672 322 81.75V78C322 77.0625 322.82 76.125 323.875 76.125C324.812 76.125 325.75 77.0625 325.75 78V81.75H333.25V78C333.25 77.0625 334.07 76.125 335.125 76.125C336.062 76.125 337 77.0625 337 78V81.75C337 81.8672 336.883 81.8672 336.883 81.8672C339.344 82.1016 341.57 83.3906 342.859 85.6172ZM351.883 111.75H352V109.992C352 109.406 351.766 108.703 351.414 108.234L339.578 87.4922C338.875 86.3203 337.703 85.5 336.297 85.5H322.586C321.18 85.5 320.008 86.3203 319.305 87.6094L307.469 108.234C307.117 108.703 307 109.406 307 109.992V111.75C307 113.859 308.641 115.5 310.75 115.5H348.133C350.125 115.5 351.883 113.859 351.883 111.75Z" fill="white"/>
</svg>
